/* XPM */
static char *_4ad22c996db47ebf308124d1343cc3cHlOiyT6AJqCeaAtQ[] = {
/* columns rows colors chars-per-pixel */
"32 32 9 1 ",
"  c None",
". c #1A2A40",
"X c #20444F",
"o c #2F6878",
"O c #E08128",
"+ c #E3936B",
"@ c #3C9F9C",
"# c #66D1A6",
"$ c #F5C187",
/* pixels */
"                                ",
"                                ",
"                                ",
"            OOOOOO              ",
"           OOOO   OO            ",
"           +++OOOOOOO           ",
"          $X$XOOOOOOOOO         ",
"           $$$OO  OOOO          ",
"           $$$O    OO  .        ",
"       .. oo$oo ..     O        ",
"      ....o@@@o....    O        ",
"      ....@@@@@....  @$$        ",
"       ..@@@@@@@..  @@@$        ",
"      oo ooo@ooo oo@@OO.OO      ",
"     oo   ooooo   @@   @        ",
"    o@@    ooo    @@   @        ",
"     @@@   ooo.       #@o       ",
"       @@$$...o       #@o       ",
"        @$.o@o@o      #@o       ",
"         @o@o@o@o     #@o       ",
"         o@o@o@o@     #@o       ",
"         @o@o@o@.     #@o       ",
"         o@o@o@..     #@o       ",
"         @o@o@...     #@o       ",
"         .@o@ .@.     #@o       ",
"         ..@   @@o    #@o       ",
"         o.     oo    #@o       ",
"         oo     oo    #@o       ",
"        oo      oo    #@o       ",
"       @@o......oo    #@o       ",
"        .......@@o....#@o       ",
"                                "
};
